<?xml version="1.0" standalone="no"?><!DOCTYPE svg PUBLIC "-//W3C//DTD SVG 1.1//EN" "http://www.w3.org/Graphics/SVG/1.1/DTD/svg11.dtd"><svg t="1715659114622" class="icon" viewBox="0 0 1024 1024" version="1.1" xmlns="http://www.w3.org/2000/svg" p-id="18637" xmlns:xlink="http://www.w3.org/1999/xlink" width="75" height="75"><path d="M512 448c-4.16 0-8.32-1.76-11.36-4.64-2.88-3.04-4.64-7.2-4.64-11.36 0-4.32 1.76-8.32 4.64-11.36 5.92-5.92 16.64-5.92 22.72 0 2.88 3.04 4.64 7.2 4.64 11.36 0 4.16-1.76 8.32-4.64 11.36-3.04 2.88-7.2 4.64-11.36 4.64z" fill="#515151" p-id="18638"></path><path d="M736 608H256C158.96 608 80 529.04 80 432c0-72.96 43.92-137.296 111.904-163.888 0.288-3.728 0.096-7.888 0.096-12.112 0-97.04 78.96-176 176-176 32.16 0 63.68 8.864 91.184 25.616A207.968 207.968 0 0 1 640 0c108.368 0 197.328 81.424 206.928 189.392C916.72 229.456 960 303.952 960 384c0 123.52-100.48 224-224 224zM368 112c-79.392 0-144 64.608-144 144 0 3.328 0.16 6.624 0.416 9.888 1.136 13.824-7.248 26.704-20.848 32.016A143.152 143.152 0 0 0 112 432c0 79.392 64.608 144 144 144h480c105.872 0 192-86.128 192-192 0-68.608-37.12-132.448-96.848-166.624a32.256 32.256 0 0 1-16.096-25.136A174.864 174.864 0 0 0 640 32a176.32 176.32 0 0 0-153.2 89.648c-8.464 14.976-29.408 20.32-44.272 11.296A143.168 143.168 0 0 0 368 112z" fill="#515151" p-id="18639"></path><path d="M754.256 166.288a16 16 0 0 1-14.336-8.864 110.176 110.176 0 0 0-24.32-32.272 110.304 110.304 0 0 0-34.288-21.408A112.64 112.64 0 0 0 640 96a16 16 0 0 1 0-32c18.32 0 36.16 3.36 53.008 9.968a142.016 142.016 0 0 1 44.192 27.584 142.08 142.08 0 0 1 31.36 41.6 16 16 0 0 1-14.304 23.136zM752 752a15.952 15.952 0 0 1-11.312-4.688L672 678.624l-68.688 68.688a16 16 0 1 1-22.624-22.624l80-80a16 16 0 0 1 22.624 0l80 80A16 16 0 0 1 752 752z" fill="#515151" p-id="18640"></path><path d="M1008 896H672a16 16 0 0 1-16-16V656a16 16 0 0 1 32 0v208h320a16 16 0 0 1 0 32zM432 752a15.952 15.952 0 0 1-11.312-4.688L352 678.624l-68.688 68.688a16 16 0 1 1-22.624-22.624l80-80a16 16 0 0 1 22.624 0l80 80A16 16 0 0 1 432 752z" fill="#515151" p-id="18641"></path><path d="M352 896H16a16 16 0 0 1 0-32h320V656a16 16 0 0 1 32 0v224a16 16 0 0 1-16 16zM512 1024a16 16 0 0 1-16-16V496a16 16 0 0 1 32 0v512a16 16 0 0 1-16 16z" fill="#515151" p-id="18642"></path><path d="M512 1024a15.952 15.952 0 0 1-11.312-4.688l-80-80a16 16 0 1 1 22.624-22.624L512 985.376l68.688-68.688a16 16 0 1 1 22.624 22.624l-80 80A15.952 15.952 0 0 1 512 1024zM512 384c-4.16 0-8.32-1.76-11.36-4.64-2.88-3.04-4.64-7.2-4.64-11.36 0-4.16 1.76-8.32 4.64-11.36 5.92-5.92 16.8-5.92 22.72 0 2.88 3.04 4.64 7.2 4.64 11.36 0 4.16-1.76 8.32-4.64 11.36-3.04 2.88-7.2 4.64-11.36 4.64zM512 320c-4.16 0-8.32-1.76-11.36-4.64-2.88-3.04-4.64-7.04-4.64-11.36 0-4.16 1.76-8.32 4.64-11.36 6.08-5.92 16.64-5.92 22.72 0 2.88 3.04 4.64 7.2 4.64 11.36 0 4.32-1.76 8.32-4.64 11.36-3.04 2.88-7.2 4.64-11.36 4.64z" fill="#515151" p-id="18643"></path></svg>