<?xml version="1.0" standalone="no"?><!DOCTYPE svg PUBLIC "-//W3C//DTD SVG 1.1//EN" "http://www.w3.org/Graphics/SVG/1.1/DTD/svg11.dtd"><svg t="1715658968803" class="icon" viewBox="0 0 1024 1024" version="1.1" xmlns="http://www.w3.org/2000/svg" p-id="13199" xmlns:xlink="http://www.w3.org/1999/xlink" width="75" height="75"><path d="M160.362667 298.666667c70.506667 0 105.749333 41.749333 105.749333 125.226666 0 25.173333-3.818667 46.549333-11.456 64.128-7.637333 17.578667-21.056 31.786667-40.256 42.56L279.04 725.333333h-63.445333l-55.829334-182.186666H123.946667V725.333333H64V298.666667h96.362667z m315.797333 0v57.536h-68.821333V725.333333h-59.477334V356.202667H279.04V298.666667h197.12zM155.072 356.202667h-31.146667v133.034666h34.090667c10.56 0 18.986667-1.493333 25.258667-4.501333a34.56 34.56 0 0 0 14.677333-12.885333c3.136-5.589333 5.290667-12.48 6.464-20.693334 1.173333-8.170667 1.770667-17.664 1.770667-28.437333 0-10.794667-0.597333-20.266667-1.770667-28.48a57.728 57.728 0 0 0-7.04-21.269333c-7.445333-11.178667-21.546667-16.768-42.304-16.768z m339.008 45.013333c0-16.896 2.88-31.829333 8.64-44.8 5.76-12.970667 13.44-23.765333 23.061333-32.426667a97.024 97.024 0 0 1 31.402667-18.837333A101.781333 101.781333 0 0 1 592.64 298.666667c11.904 0 23.722667 2.154667 35.456 6.485333 11.712 4.309333 22.378667 10.602667 32 18.858667 9.194667 8.64 16.704 19.434667 22.464 32.426666 5.76 12.949333 8.64 27.882667 8.64 44.778667v221.568c0 17.706667-2.88 32.810667-8.64 45.376a93.504 93.504 0 0 1-22.485333 31.253333c-9.6 8.64-20.266667 15.125333-32 19.434667A101.781333 101.781333 0 0 1 592.64 725.333333a101.781333 101.781333 0 0 1-35.456-6.485333 92.138667 92.138667 0 0 1-31.402667-19.434667 89.813333 89.813333 0 0 1-23.04-31.253333c-5.76-12.565333-8.661333-27.690667-8.661333-45.376V401.216z m58.794667 221.568c0 14.549333 3.925333 25.258667 11.818666 32.128 7.872 6.869333 17.194667 10.304 27.946667 10.304s20.074667-3.413333 27.946667-10.304c7.893333-6.869333 11.818667-17.578667 11.818666-32.128V401.216c0-14.549333-3.925333-25.258667-11.818666-32.128a41.130667 41.130667 0 0 0-27.946667-10.304c-10.752 0-20.074667 3.413333-27.946667 10.304-7.893333 6.869333-11.818667 17.578667-11.818666 32.128v221.568zM960 423.04h-62.677333v-13.568c0-13.738667-3.370667-25.621333-10.133334-35.626667-6.762667-10.026667-18.133333-15.04-34.090666-15.04-8.597333 0-15.573333 1.557333-20.906667 4.693334a40.533333 40.533333 0 0 0-12.885333 11.797333c-3.285333 5.12-5.546667 10.901333-6.762667 17.386667a109.013333 109.013333 0 0 0-1.834667 20.330666c0 8.256 0.298667 15.146667 0.917334 20.629334 0.618667 5.504 2.133333 10.410667 4.608 14.72 2.453333 4.330667 6.037333 8.064 10.752 11.2 4.693333 3.157333 11.157333 6.293333 19.349333 9.429333l47.914667 18.282667c13.930667 5.12 25.194667 11.093333 33.792 17.962666 8.618667 6.890667 15.36 14.848 20.266666 23.893334 4.522667 9.408 7.594667 20.117333 9.237334 32.106666 1.642667 11.968 2.453333 25.621333 2.453333 40.96 0 17.664-1.834667 34.069333-5.546667 49.194667-3.669333 15.146667-9.6 27.989333-17.792 38.613333-8.618667 10.986667-19.882667 19.626667-33.792 25.92-13.930667 6.293333-30.933333 9.429333-50.986666 9.429334-15.168 0-29.312-2.56-42.410667-7.68a101.333333 101.333333 0 0 1-33.792-21.205334 103.189333 103.189333 0 0 1-22.421333-31.509333 92.373333 92.373333 0 0 1-8.298667-39.210667v-22.4h62.677333v18.88c0 10.986667 3.370667 20.906667 10.133334 29.76 6.762667 8.832 18.133333 13.248 34.090666 13.248 10.666667 0 18.944-1.472 24.896-4.416 5.930667-2.944 10.538667-7.168 13.824-12.672 3.264-5.504 5.205333-12.074667 5.824-19.733333 0.618667-7.68 0.917333-16.213333 0.917334-25.642667 0-11.008-0.405333-20.053333-1.216-27.093333-0.832-7.082667-2.453333-12.8-4.906667-17.109333a33.92 33.92 0 0 0-11.370667-10.602667 148.266667 148.266667 0 0 0-18.752-8.832l-44.842666-17.685333c-27.029333-10.602667-45.162667-24.661333-54.378667-42.133334-9.216-17.493333-13.824-39.381333-13.824-65.706666 0-15.722667 2.261333-30.656 6.762667-44.8a100.608 100.608 0 0 1 20.266666-36.522667 92.501333 92.501333 0 0 1 32.874667-24.469333c13.312-6.08 29.184-9.130667 47.616-9.130667 15.573333 0 29.802667 2.752 42.709333 8.256a110.314667 110.314667 0 0 1 33.493334 21.802667c18.816 18.858667 28.245333 40.469333 28.245333 64.832v29.44z" fill="#515151" p-id="13200"></path></svg>