<?xml version="1.0" standalone="no"?><!DOCTYPE svg PUBLIC "-//W3C//DTD SVG 1.1//EN" "http://www.w3.org/Graphics/SVG/1.1/DTD/svg11.dtd"><svg t="1715666902351" class="icon" viewBox="0 0 1024 1024" version="1.1" xmlns="http://www.w3.org/2000/svg" p-id="10432" width="256" height="256" xmlns:xlink="http://www.w3.org/1999/xlink"><path d="M224.619355 171.767742v85.883871h26.425806v231.225806h13.212904c1.123097 0 2.219768 0.066065 3.303225 0.198194V254.348387l128.825807-0.006606V171.767742h404.645161v82.574039l127.174194 0.006606v568.154839h-660.645162V594.382452l-1.6384 0.145342L264.258065 594.580645h-13.212904v227.922581H132.129032V594.574039L118.916129 594.580645a26.425806 26.425806 0 0 1-26.392774-25.104516L92.490323 568.154839v-52.851613a26.425806 26.425806 0 0 1 25.104516-26.392774L118.916129 488.877419h13.212903V257.651613l26.4192-0.006607L158.554839 171.767742h66.064516z m0 436.025806h-59.458065v184.980646h59.458065V607.793548z m-13.212903 151.948387v13.212904h-33.032258v-13.212904h33.032258z m668.176516-424.081341h-13.212903v18.498064L343.535484 354.152052V336.929032h-13.212903v30.442529h536.047484V396.387097h-168.953394v284.077419h168.953394v26.425807H330.322581v30.442529h13.212903V720.103226h522.834581v25.203613h13.212903V335.660594zM211.406452 726.709677v13.212904h-33.032258v-13.212904h33.032258z m0-33.032258v13.212904h-33.032258v-13.212904h33.032258z m363.354838-34.287484h-46.245161v19.819355h46.245161v-19.819355z m-171.767742 0h-46.245161v19.819355h46.245161v-19.819355z m85.883871 0h-46.245161v19.819355h46.245161v-19.819355z m171.767742 0h-46.245161v19.819355h46.245161v-19.819355zM211.406452 660.645161v13.212904h-33.032258v-13.212904h33.032258z m654.963613-251.045161v257.651613h-155.740491V409.6h155.740491zM211.406452 627.612903v13.212903h-33.032258v-13.212903h33.032258z m277.470967-14.468129h-46.245161v19.819355h46.245161v-19.819355z m171.767742 0h-46.245161v19.819355h46.245161v-19.819355z m-257.651613 0h-46.245161v19.819355h46.245161v-19.819355z m171.767742 0h-46.245161v19.819355h46.245161v-19.819355zM231.225806 442.632258H158.554839v13.212903h72.670967v-13.212903z m171.767742-46.245161h-46.245161v39.638709h46.245161v-39.638709z m85.883871 0h-46.245161v39.638709h46.245161v-39.638709z m85.883871 0h-46.245161v39.638709h46.245161v-39.638709z m85.883871 0h-46.245161v39.638709h46.245161v-39.638709z m-449.238709 13.212903h-52.851613v13.212903h52.851613v-13.212903z m-19.819355-33.032258h-33.032258v13.212903h33.032258v-13.212903z m556.593548-151.948387H449.23871v29.722426h298.941935V224.619355zM191.587097 198.193548a19.819355 19.819355 0 1 0 0 39.63871 19.819355 19.819355 0 0 0 0-39.63871z" fill="#515151" p-id="10433"></path></svg>